<svg width="400" height="288" viewBox="0 0 400 288" fill="none" xmlns="http://www.w3.org/2000/svg">
<path d="M88.5 288C137.377 288 177 248.377 177 199.5C177 150.623 137.377 111 88.5 111C39.623 111 0 150.623 0 199.5C0 248.377 39.623 288 88.5 288Z" fill="#2D2D2D"/>
<path d="M379.525 288H282.731C264.429 288 247.702 277.637 239.538 261.241L124.174 29.5844C117.397 15.9802 127.287 -0.00941812 142.474 4.16225e-06H239.268C257.57 4.16225e-06 274.295 10.3614 282.461 26.7561L397.825 258.417C404.604 272.021 394.713 288.011 379.525 288Z" fill="#2D2D2D"/>
</svg>
