<svg width="384" height="62" viewBox="0 0 384 62" fill="none" xmlns="http://www.w3.org/2000/svg">
<g clip-path="url(#clip0_186_187)">
<path d="M67.84 48H57.184L53.92 41.52H32.8L29.536 48H18.832L36.496 13.728H50.224L67.84 48ZM43.36 20.688L36.592 34.08H50.128L43.36 20.688ZM106.22 33.984C108.108 34.176 109.564 34.832 110.588 35.952C111.612 37.04 112.124 38.544 112.124 40.464V48H102.236V42.336C102.236 41.216 102.124 40.384 101.9 39.84C101.676 39.264 101.276 38.864 100.7 38.64C100.124 38.384 99.2601 38.256 98.1081 38.256H82.0761V48H72.1401V13.728H98.4441C102.956 13.728 106.396 14.64 108.764 16.464C111.132 18.256 112.316 20.944 112.316 24.528C112.316 29.328 110.284 32.48 106.22 33.984ZM82.0761 21.84V30.144H95.9961C97.3401 30.144 98.3961 30.08 99.1641 29.952C99.9321 29.824 100.572 29.456 101.084 28.848C101.628 28.24 101.9 27.296 101.9 26.016C101.9 24.704 101.628 23.76 101.084 23.184C100.572 22.576 99.9321 22.208 99.1641 22.08C98.3961 21.92 97.3401 21.84 95.9961 21.84H82.0761ZM157.893 13.728V22.176H142.245V48H132.309V22.176H116.613V13.728H157.893ZM163.171 13.728H173.107V48H163.171V13.728ZM201.891 41.04L215.715 13.728H226.371L208.755 48H195.027L177.363 13.728H188.067L201.891 41.04ZM266.449 48H255.793L252.529 41.52H231.409L228.145 48H217.441L235.105 13.728H248.833L266.449 48ZM241.969 20.688L235.201 34.08H248.737L241.969 20.688Z" fill="black"/>
<path d="M322.272 7.8H333.344V8.184L317.28 51.832H316.832L300.64 8.184V7.8H312.544V8.184L307.424 10.552L319.008 42.488H319.456L326.176 23.096C327.456 19.5547 328.096 16.8453 328.096 14.968C328.096 13.304 327.627 11.9813 326.688 11C325.792 9.976 324.32 9.03733 322.272 8.184V7.8ZM362.223 38.84V50.68L361.903 51H335.279L335.343 50.936V50.616L347.695 35.512C350.169 32.4827 352.089 29.6453 353.455 27C354.82 24.312 355.503 21.5813 355.503 18.808C355.503 16.3333 354.905 14.264 353.711 12.6C352.516 10.936 350.617 10.104 348.015 10.104C345.753 10.104 344.111 11.0427 343.087 12.92C342.063 14.7547 341.615 17.3573 341.743 20.728L335.279 23.608L335.087 23.48C336.452 20.0667 338.052 17.1227 339.887 14.648C341.764 12.1307 343.62 10.232 345.455 8.952C347.289 7.62933 348.868 6.968 350.191 6.968C354.031 6.968 356.804 7.90666 358.511 9.784C360.217 11.6613 361.071 13.8587 361.071 16.376C361.071 19.1493 360.132 22.0507 358.255 25.08C356.42 28.1093 353.519 31.6507 349.551 35.704L340.655 45.944V46.264H356.015C357.209 46.264 358.105 46.072 358.703 45.688C359.343 45.2613 359.855 44.5787 360.239 43.64C360.665 42.6587 361.199 41.0587 361.839 38.84H362.223Z" fill="#252525"/>
</g>
<defs>
<clipPath id="clip0_186_187">
<rect width="384" height="62" fill="white"/>
</clipPath>
</defs>
</svg>
